<svg xmlns="http://www.w3.org/2000/svg" aria-hidden="true" style="position:absolute;width:0;height:0;overflow:hidden"><defs><symbol id="instagram" viewBox="0 0 32 32"><path stroke-linecap="round" stroke-linejoin="round" stroke-width="2" d="M12 29.333h8c6.667 0 9.333-2.667 9.333-9.333v-8c0-6.667-2.667-9.333-9.333-9.333h-8c-6.667 0-9.333 2.667-9.333 9.333v8c0 6.667 2.667 9.333 9.333 9.333z"/><path stroke-linecap="round" stroke-linejoin="round" stroke-width="2" d="M16 20.667a4.667 4.667 0 0 0 0-9.334 4.667 4.667 0 0 0 0 9.334z"/><path stroke-linecap="round" stroke-linejoin="round" stroke-width="2.667" d="M23.515 9.333h.016"/></symbol><symbol id="add" viewBox="0 0 32 32"><path stroke-linecap="round" stroke-linejoin="round" stroke-width="3" d="M8 16h16m-8 8V8"/></symbol><symbol id="arrow-accross" viewBox="0 0 32 32"><path stroke-linecap="round" stroke-linejoin="round" stroke-miterlimit="10" stroke-width="1.714" d="M12.569 7.986h11.445v11.446M7.987 24.014 23.854 8.147"/></symbol><symbol id="arrow-left-slider" viewBox="0 0 32 32"><path stroke-linecap="round" stroke-linejoin="round" stroke-miterlimit="10" stroke-width="1.333" d="m12.759 7.905-8.092 8.093 8.093 8.093m14.572-8.093H4.892"/></symbol><symbol id="arrow-right-slider" viewBox="0 0 32 32"><path stroke-linecap="round" stroke-linejoin="round" stroke-miterlimit="10" stroke-width="1.333" d="m19.24 7.905 8.093 8.093-8.093 8.093M4.668 15.998h22.44"/></symbol><symbol id="arrow-right" viewBox="0 0 32 32"><path stroke-linecap="round" stroke-linejoin="round" stroke-miterlimit="10" stroke-width="1.882" d="M19.049 8.382 26.667 16l-7.618 7.616M5.333 16h21.12"/></symbol><symbol id="burger-menu" viewBox="0 0 32 32"><path stroke-linecap="round" stroke-width="1.882" d="M4.706 9.728h22.588M4.706 16h22.588M4.706 22.272h22.588"/></symbol><symbol id="call" viewBox="0 0 32 32"><path stroke-miterlimit="10" stroke-width="2" d="M29.293 24.44c0 .48-.107.973-.333 1.453s-.52.933-.907 1.36c-.653.72-1.373 1.24-2.187 1.573-.8.333-1.667.507-2.6.507-1.36 0-2.813-.32-4.347-.973s-3.067-1.533-4.587-2.64a38.616 38.616 0 0 1-4.376-3.736l.002.002a38.065 38.065 0 0 1-3.647-4.255l-.073-.105c-1.093-1.52-1.973-3.04-2.613-4.547-.64-1.52-.96-2.973-.96-4.36 0-.907.16-1.773.48-2.573.32-.813.827-1.56 1.533-2.227.853-.84 1.787-1.253 2.773-1.253.373 0 .747.08 1.08.24.347.16.653.4.893.747l3.093 4.36c.24.333.413.64.533.933.12.28.187.56.187.813 0 .32-.093.64-.28.947a4.52 4.52 0 0 1-.747.947l-1.013 1.053a.712.712 0 0 0-.213.533c0 .107.013.2.04.307.04.107.08.187.107.267.24.44.653 1.013 1.24 1.707.6.693 1.24 1.4 1.933 2.107.72.707 1.413 1.36 2.12 1.96.693.587 1.267.987 1.72 1.227.067.027.147.067.24.107a.92.92 0 0 0 .333.053c.227 0 .4-.08.547-.227l1.013-1c.333-.333.653-.587.96-.747.307-.187.613-.28.947-.28.253 0 .52.053.813.173s.6.293.933.52l4.413 3.133c.347.24.587.52.733.853.133.333.213.667.213 1.04z"/></symbol><symbol id="facebook" viewBox="0 0 32 32"><path d="M18.667 12.4v3.867h3.467c.267 0 .4.267.4.533l-.533 2.533c0 .133-.267.267-.4.267h-2.933v9.733h-4v-9.6h-2.267c-.267 0-.4-.133-.4-.4V16.8c0-.267.133-.4.4-.4h2.267V12c0-2.267 1.733-4 4-4h3.6c.267 0 .4.133.4.4v3.2c0 .267-.133.4-.4.4h-3.2c-.267 0-.4.133-.4.4z"/><path stroke-linecap="round" stroke-linejoin="round" stroke-width="2" d="M20 29.333h-8c-6.667 0-9.333-2.667-9.333-9.333v-8c0-6.667 2.667-9.333 9.333-9.333h8c6.667 0 9.333 2.667 9.333 9.333v8c0 6.667-2.667 9.333-9.333 9.333z"/></symbol><symbol id="iconamoon_close-light" viewBox="0 0 32 32"><path stroke-linecap="round" stroke-linejoin="round" stroke-width="2.4" d="m9.333 9.333 13.334 13.333m-13.333 0L22.667 9.333"/></symbol><symbol id="innovation" viewBox="0 0 32 32"><path stroke-linecap="round" stroke-linejoin="round" stroke-width="2" d="M12.8 26.666h6.4c5.334 0 7.466-2.134 7.466-7.468V12.8c0-5.332-2.132-7.466-7.466-7.466h-6.4c-5.334 0-7.468 2.134-7.468 7.466v6.4c0 5.334 2.134 7.468 7.468 7.468z"/><path stroke-linecap="round" stroke-linejoin="round" stroke-width="2" d="M14 22.666h4c3.332 0 4.666-1.334 4.666-4.668V14c0-3.332-1.334-4.666-4.666-4.666h-4c-3.334 0-4.666 1.334-4.666 4.666v4c0 3.334 1.332 4.668 4.666 4.668zM10.68 5.334V2.668M16 5.334V2.668m5.332 2.666V2.668m5.336 8h2.666M26.668 16h2.666m-2.666 5.332h2.666m-8.002 5.336v2.666m-5.318-2.666v2.666m-5.334-2.666v2.666M2.666 10.668h2.668M2.666 16h2.668m-2.668 5.332h2.668"/><path stroke-linecap="round" stroke-linejoin="round" stroke-width="2" d="m16 12.934-1.254 2.186c-.28.48-.052.88.508.88h1.492c.56 0 .788.4.508.88L16 19.066"/></symbol><symbol id="map" viewBox="0 0 32 32"><path stroke-linecap="round" stroke-linejoin="round" stroke-width="2" d="M3.053 10.373v12.973c0 2.533 1.8 3.573 3.987 2.32l3.133-1.787c.68-.387 1.813-.427 2.52-.067l7 3.507c.707.347 1.84.32 2.52-.067l5.773-3.307c.733-.427 1.347-1.467 1.347-2.32V8.652c0-2.533-1.8-3.573-3.987-2.32l-3.133 1.787c-.68.387-1.813.427-2.52.067l-7-3.493c-.707-.347-1.84-.32-2.52.067L4.4 8.067c-.747.427-1.347 1.467-1.347 2.307zm8.36-5.04v17.333m9.56-13.839v17.84"/></symbol><symbol id="minus" viewBox="0 0 32 32"><path stroke-linecap="round" stroke-linejoin="round" stroke-width="3" d="M8 16h16"/></symbol><symbol id="openness" viewBox="0 0 32 32"><path stroke-linecap="round" stroke-linejoin="round" stroke-width="2" d="M22.668 4H28v5.334M20 12l8-8M9.334 28H4v-5.332M12 20l-8 8M18.694 2.934c-.81-.169-1.74-.266-2.693-.266H16c-7.365.003-13.334 5.975-13.334 13.34 0 .942.098 1.86.283 2.747l-.015-.087m10.372 10.398c.81.169 1.741.266 2.694.266 7.365-.003 13.334-5.975 13.334-13.34 0-.942-.098-1.86-.283-2.747l.015.087"/></symbol><symbol id="quality" viewBox="0 0 32 32"><path stroke-linecap="round" stroke-linejoin="round" stroke-miterlimit="10" stroke-width="2" d="M11.56 18.668H5.334a2.674 2.674 0 0 0-2.666 2.666v8h8.892V18.668z"/><path stroke-linecap="round" stroke-linejoin="round" stroke-miterlimit="10" stroke-width="2" d="M17.774 13.332h-3.56a2.675 2.675 0 0 0-2.668 2.666v13.334h8.894V15.998a2.665 2.665 0 0 0-2.666-2.666zm8.894 9.336H20.44v6.666h8.894v-4c0-1.466-1.2-2.666-2.666-2.666z"/><path stroke-linecap="round" stroke-linejoin="round" stroke-width="2" d="m16.694 2.76.706 1.414c.094.2.346.386.56.412l1.28.214c.814.134 1.014.734.426 1.306l-1 1a.849.849 0 0 0-.211.725l-.001-.005.28 1.228c.226.972-.294 1.346-1.148.84l-1.2-.708a.813.813 0 0 0-.79.002l.004-.002-1.2.708c-.854.506-1.374.132-1.146-.84l.28-1.228a.84.84 0 0 0-.214-.721l-.986-.986c-.588-.586-.4-1.174.426-1.306l1.28-.214a.89.89 0 0 0 .558-.41l.002-.004.706-1.412c.388-.774 1-.774 1.388-.014z"/></symbol><symbol id="responssbility" viewBox="0 0 32 32"><path stroke-linecap="round" stroke-linejoin="round" stroke-width="2" d="M29.334 16C29.328 8.639 23.361 2.673 16 2.67 8.637 2.673 2.669 8.641 2.666 16.004 2.671 23.366 8.638 29.332 16 29.334"/><path stroke-linecap="round" stroke-linejoin="round" stroke-width="2" d="M10.668 4H12c-1.236 3.581-1.95 7.707-1.95 12s.714 8.419 2.029 12.267L12 28h-1.332M20 4a38.053 38.053 0 0 1 1.946 12"/><path stroke-linecap="round" stroke-linejoin="round" stroke-width="2" d="M4 21.334V20a38.053 38.053 0 0 0 12 1.946M4 12a37.898 37.898 0 0 1 24 0"/><path stroke-linecap="round" stroke-linejoin="round" stroke-miterlimit="10" stroke-width="2" d="m25.612 20.986-4.72 4.72a1.637 1.637 0 0 0-.398.777l-.002.011-.252 1.8c-.094.652.36 1.106 1.014 1.012l1.8-.252c.307-.06.574-.202.787-.401l-.001.001 4.72-4.72c.814-.814 1.2-1.76 0-2.96-1.186-1.188-2.134-.8-2.946.012z"/><path stroke-linecap="round" stroke-linejoin="round" stroke-miterlimit="10" stroke-width="2" d="M24.932 21.668c.4 1.44 1.52 2.56 2.96 2.96"/></symbol><symbol id="sms" viewBox="0 0 32 32"><path stroke-linecap="round" stroke-linejoin="round" stroke-miterlimit="10" stroke-width="2" d="M22.667 27.333H9.334c-4 0-6.667-2-6.667-6.667v-9.333c0-4.667 2.667-6.667 6.667-6.667h13.333c4 0 6.667 2 6.667 6.667v9.333c0 4.667-2.667 6.667-6.667 6.667z"/><path stroke-linecap="round" stroke-linejoin="round" stroke-miterlimit="10" stroke-width="2" d="m22.667 12-4.173 3.333c-1.373 1.093-3.627 1.093-5 0L9.334 12"/></symbol><symbol id="Logo" viewBox="0 0 215 32"><path fill="#97d28b" d="M170.352 17.712c-.874 0-1.538-.274-1.992-.824s-.68-1.264-.68-2.144c0-.406.05-.782.152-1.128.106-.352.262-.666.464-.944.208-.282.486-.504.832-.664s.744-.24 1.192-.24c.614 0 1.114.144 1.504.432.39.282.656.694.8 1.232l-.728.152c-.24-.762-.762-1.144-1.568-1.144-.602 0-1.072.206-1.408.616s-.504.982-.504 1.712c0 .736.17 1.304.512 1.704.342.394.822.592 1.44.592.518 0 .92-.128 1.208-.384.294-.256.44-.566.44-.928v-.6h-1.592v-.608h2.288v1.088c0 .592-.206 1.088-.616 1.488-.41.394-.992.592-1.744.592zm3.399-.112v-5.712h2.096c.603 0 1.075.146 1.416.44.342.288.512.69.512 1.208 0 .416-.114.762-.344 1.04-.229.272-.554.45-.976.536l1.392 2.488h-.848l-1.264-2.384h-1.248V17.6h-.736zm.736-3.048h1.336c.379 0 .672-.086.88-.256.214-.17.32-.408.32-.712 0-.698-.405-1.048-1.216-1.048h-1.32v2.016zm4.327 3.048v-5.712h3.856v.648h-3.12v1.848h2.584v.648h-2.584v1.92h3.128v.648h-3.864zm4.836 0v-5.712h3.856v.648h-3.12v1.848h2.584v.648h-2.584v1.92h3.128v.648h-3.864zm4.836 0v-5.712h.888l2.624 3.912.432.688h.08l-.008-1.096v-3.504h.712V17.6h-.848l-2.536-3.752-.552-.848h-.072l.008 1.088V17.6h-.728z" style="fill:var(--color1, #97d28b)"/><path fill="#173d33" d="M194.597 17.6v-5.712h3.856v.648h-3.12v1.848h2.584v.648h-2.584v1.92h3.128v.648h-3.864zm4.836 0v-5.712h2.096c.602 0 1.074.146 1.416.44.342.288.512.69.512 1.208 0 .416-.114.762-.344 1.04-.23.272-.554.45-.976.536l1.392 2.488h-.848l-1.264-2.384h-1.248V17.6h-.736zm.736-3.048h1.336c.378 0 .672-.086.88-.256.214-.17.32-.408.32-.712 0-.698-.406-1.048-1.216-1.048h-1.32v2.016zm6.63 3.16c-.874 0-1.538-.274-1.992-.824s-.68-1.264-.68-2.144c0-.406.051-.782.152-1.128a3.15 3.15 0 0 1 .464-.944c.208-.282.486-.504.832-.664s.744-.24 1.192-.24c.614 0 1.115.144 1.504.432.39.282.656.694.8 1.232l-.728.152c-.24-.762-.762-1.144-1.568-1.144-.602 0-1.072.206-1.408.616s-.504.982-.504 1.712c0 .736.171 1.304.512 1.704.342.394.822.592 1.44.592.518 0 .92-.128 1.208-.384.294-.256.44-.566.44-.928v-.6h-1.592v-.608h2.288v1.088c0 .592-.205 1.088-.616 1.488-.41.394-.992.592-1.744.592zm4.707-.112v-2.024l-2.056-3.688h.856l1.56 2.968 1.568-2.968h.848l-2.04 3.688V17.6h-.736zm-43.458 7.2v-5.712h3.744v.648h-3.008v1.984h2.496v.656h-2.496V24.8h-.736zm6.797.112c-.848 0-1.512-.286-1.992-.856-.474-.57-.712-1.278-.712-2.12s.243-1.546.728-2.112c.491-.57 1.15-.856 1.976-.856s1.486.286 1.976.856c.491.57.736 1.274.736 2.112 0 .842-.24 1.55-.72 2.12-.474.57-1.138.856-1.992.856zm0-.656c.598 0 1.072-.21 1.424-.632.358-.422.536-.984.536-1.688 0-.698-.178-1.258-.536-1.68-.357-.432-.832-.648-1.424-.648-.581 0-1.053.216-1.416.648-.357.422-.536.982-.536 1.68 0 .704.176 1.266.528 1.688.358.422.832.632 1.424.632zm3.704.544v-5.712h2.096c.602 0 1.074.146 1.416.44.341.288.512.69.512 1.208 0 .416-.115.762-.344 1.04-.23.272-.555.45-.976.536l1.392 2.488h-.848l-1.264-2.384h-1.248V24.8h-.736zm.736-3.048h1.336c.378 0 .672-.086.88-.256.213-.17.32-.408.32-.712 0-.698-.406-1.048-1.216-1.048h-1.32v2.016zm6.163 3.048v-5.712h.736v5.056h3v.656h-3.736zm4.492 0v-5.712h.736V24.8h-.736zm2.118 0v-5.712h3.744v.648h-3.008v1.984h2.496v.656h-2.496V24.8h-.736zm4.555 0v-5.712h3.856v.648h-3.12v1.848h2.584v.648h-2.584v1.92h3.128v.648h-3.864zm-160.825.343c-4.118 0-7.022-2.904-7.022-6.864s2.904-6.864 7.022-6.864 6.97 2.904 6.97 6.864v1.03H31.776c.396 2.086 1.98 3.221 4.013 3.221 1.531 0 2.64-.449 3.353-1.426h3.089c-1.003 2.455-3.379 4.039-6.442 4.039zm-3.934-8.237h7.894c-.502-1.901-2.059-2.878-3.96-2.878-1.954 0-3.432 1.003-3.934 2.878zm18.398 8.237c-4.118 0-7.022-2.904-7.022-6.864s2.904-6.864 7.022-6.864c3.512 0 6.098 2.112 6.758 5.148h-2.878c-.607-1.505-2.006-2.508-3.88-2.508-2.482 0-4.146 1.769-4.146 4.224s1.664 4.224 4.145 4.224c1.874 0 3.274-1.003 3.881-2.508h2.878c-.66 3.036-3.247 5.148-6.758 5.148zm14.258 0c-4.118 0-7.022-2.904-7.022-6.864s2.904-6.864 7.022-6.864 7.022 2.904 7.022 6.864-2.904 6.864-7.022 6.864zm0-2.64c2.482 0 4.118-1.769 4.118-4.224s-1.637-4.224-4.118-4.224-4.145 1.769-4.145 4.224 1.663 4.224 4.145 4.224zm12.984 2.64c-3.299 0-5.385-1.769-5.464-4.171h2.878c.053.977.924 1.637 2.587 1.637 1.742 0 2.561-.739 2.561-1.637 0-1.109-1.241-1.241-2.772-1.452-2.112-.264-4.99-.66-4.99-3.749 0-2.614 2.032-4.356 5.174-4.356s5.095 1.795 5.148 4.066h-2.825c-.08-.898-.898-1.531-2.297-1.531-1.505 0-2.323.713-2.323 1.61 0 1.109 1.294 1.241 2.772 1.452 2.006.264 4.99.634 4.99 3.749 0 2.64-2.138 4.382-5.438 4.382zm12.98 0c-4.118 0-7.022-2.904-7.022-6.864s2.904-6.864 7.022-6.864 7.022 2.904 7.022 6.864-2.904 6.864-7.022 6.864zm0-2.64c2.482 0 4.118-1.769 4.118-4.224s-1.637-4.224-4.118-4.224-4.145 1.769-4.145 4.224 1.663 4.224 4.145 4.224zm8.471 2.297V6.056h2.851V24.8h-2.851zm11.305.343c-3.854 0-6.442-2.218-6.442-6.6v-6.785h2.851v6.785c0 2.64 1.426 3.96 3.59 3.96s3.59-1.32 3.59-3.96v-6.785h2.851v6.785c0 4.356-2.587 6.6-6.442 6.6zm13.25 0c-3.142 0-5.28-1.742-5.28-5.333V7.138h2.851v4.62h6.943v2.587h-6.943v5.465c0 1.901.977 2.693 2.429 2.693s2.455-.766 2.455-2.693v-.317h2.825v.317c0 3.59-2.138 5.333-5.28 5.333zm8.172-15.233c-1.109 0-1.927-.845-1.927-1.954s.818-1.954 1.927-1.954 1.927.845 1.927 1.954-.818 1.954-1.927 1.954zM130.22 24.8V11.758h2.851V24.8h-2.851zm11.332.343c-4.118 0-7.022-2.904-7.022-6.864s2.904-6.864 7.022-6.864 7.022 2.904 7.022 6.864-2.904 6.864-7.022 6.864zm0-2.64c2.482 0 4.118-1.769 4.118-4.224s-1.637-4.224-4.118-4.224-4.145 1.769-4.145 4.224 1.663 4.224 4.145 4.224zm8.022 2.297v-6.785c0-4.356 2.587-6.6 6.442-6.6s6.442 2.218 6.442 6.6V24.8h-2.851v-6.785c0-2.64-1.426-3.96-3.59-3.96s-3.59 1.32-3.59 3.96V24.8h-2.851zM17.064 21.447c-.052-.123-4.313-8.448-4.382-8.563a2.753 2.753 0 0 0-.64-.92l-.001-.001a2.799 2.799 0 0 0-.942-.587l-.019-.006a2.77 2.77 0 0 0-.962-.169c-.457 0-.889.109-1.27.302l.016-.007c-.341.17-.642.408-.886.698a2.693 2.693 0 0 0-.639 1.746c0 .523.148 1.011.405 1.424l-.007-.012c.052.123 4.13 8.092 4.2 8.206.051.123.112.242.182.357.147.348.365.662.64.922.268.253.588.454.942.586l.019.006a2.811 2.811 0 0 0 2.233-.133l-.016.007c.341-.17.642-.408.886-.698a2.693 2.693 0 0 0 .639-1.746c0-.523-.148-1.011-.405-1.424l.007.012z" style="fill:var(--color2, #173d33)"/><path fill="#97d28b" d="M12.144 15.814a2.732 2.732 0 0 0 .751-1.874 2.7 2.7 0 0 0-.32-1.278l.007.014a2.766 2.766 0 0 0-.71-.861l-.005-.004a2.799 2.799 0 0 0-1.75-.61c-.537 0-1.04.151-1.467.412l.012-.007a2.766 2.766 0 0 0-.818.759l-.006.008c-.092.096-7.01 8.504-7.086 8.612a2.739 2.739 0 0 0-.585.935l-.006.019a2.7 2.7 0 0 0 .159 2.198l-.007-.014c.175.334.419.629.715.866.476.38 1.086.609 1.75.609.537 0 1.04-.151 1.467-.412l-.012.007c.329-.201.603-.457.818-.759l.006-.008c.092-.096 7.01-8.504 7.086-8.612zm11.904 0a2.732 2.732 0 0 0 .752-1.875c0-.462-.116-.897-.32-1.277l.007.014a2.769 2.769 0 0 0-.711-.861l-.005-.004a2.799 2.799 0 0 0-1.75-.61c-.537 0-1.04.151-1.467.412l.012-.007a2.766 2.766 0 0 0-.818.759l-.006.008c-.091.096-7.01 8.504-7.086 8.612a2.721 2.721 0 0 0-.584.935l-.006.019a2.702 2.702 0 0 0 .157 2.198l-.007-.014c.176.334.42.629.717.866.476.38 1.086.609 1.75.609.537 0 1.04-.151 1.467-.412l-.012.007c.329-.201.603-.457.818-.759l.006-.008c.091-.096 7.01-8.504 7.086-8.612z" style="fill:var(--color1, #97d28b)"/></symbol></defs></svg>