<svg xmlns="http://www.w3.org/2000/svg" aria-hidden="true" style="position:absolute;width:0;height:0;overflow:hidden">
    <defs>
        <symbol id="instagram" viewBox="0 0 32 32">
            <path fill="none" stroke-linejoin="round" stroke-linecap="round" stroke-miterlimit="4" stroke-width="2"
                d="M12 29.333h8c6.667 0 9.333-2.667 9.333-9.333v-8c0-6.667-2.667-9.333-9.333-9.333h-8c-6.667 0-9.333 2.667-9.333 9.333v8c0 6.667 2.667 9.333 9.333 9.333z">
            </path>
            <path fill="none" stroke-linejoin="round" stroke-linecap="round" stroke-miterlimit="4" stroke-width="2"
                d="M16 20.667c2.577 0 4.667-2.089 4.667-4.667s-2.089-4.667-4.667-4.667c-2.577 0-4.667 2.089-4.667 4.667s2.089 4.667 4.667 4.667z">
            </path>
            <path fill="none" stroke-linejoin="round" stroke-linecap="round" stroke-miterlimit="4" stroke-width="2.6667"
                d="M23.515 9.333h0.015"></path>
        </symbol>
        <symbol id="add" viewBox="0 0 32 32">
            <path stroke-linecap="round" stroke-linejoin="round" stroke-width="3" d="M8 16h16m-8 8V8" />
        </symbol>
        <symbol id="arrow-accross" viewBox="0 0 32 32">
            <path stroke-linecap="round" stroke-linejoin="round" stroke-miterlimit="10" stroke-width="1.714"
                d="M12.569 7.986h11.445v11.446M7.987 24.014 23.854 8.147" />
        </symbol>
        <symbol id="arrow-left-slider" viewBox="0 0 32 32">
            <path stroke-linecap="round" stroke-linejoin="round" stroke-miterlimit="10" stroke-width="1.333"
                d="m12.759 7.905-8.092 8.093 8.093 8.093m14.572-8.093H4.892" />
        </symbol>
        <symbol id="arrow-right-slider" viewBox="0 0 32 32">
            <path stroke-linecap="round" stroke-linejoin="round" stroke-miterlimit="10" stroke-width="1.333"
                d="m19.24 7.905 8.093 8.093-8.093 8.093M4.668 15.998h22.44" />
        </symbol>
        <symbol id="arrow-right" viewBox="0 0 32 32">
            <path stroke-linecap="round" stroke-linejoin="round" stroke-miterlimit="10" stroke-width="1.882"
                d="M19.049 8.382 26.667 16l-7.618 7.616M5.333 16h21.12" />
        </symbol>
        <symbol id="arrow" viewBox="0 0 30 32">
            <path fill="none" stroke-linejoin="round" stroke-linecap="round" stroke-miterlimit="10"
                stroke-width="1.8824" d="M11.829 8.456h10.772v10.772">
            </path>
            <path fill="none" stroke-linejoin="round" stroke-linecap="round" stroke-miterlimit="10"
                stroke-width="1.8824" d="M7.517 23.541l14.934-14.934">
            </path>
        </symbol>
        <symbol id="burger-menu" viewBox="0 0 32 32">
            <path stroke-linecap="round" stroke-width="1.882"
                d="M4.706 9.728h22.588M4.706 16h22.588M4.706 22.272h22.588" />
        </symbol>
        <symbol id="call" viewBox="0 0 32 32">
            <path stroke-miterlimit="10" stroke-width="2"
                d="M29.293 24.44c0 .48-.107.973-.333 1.453s-.52.933-.907 1.36c-.653.72-1.373 1.24-2.187 1.573-.8.333-1.667.507-2.6.507-1.36 0-2.813-.32-4.347-.973s-3.067-1.533-4.587-2.64a38.616 38.616 0 0 1-4.376-3.736l.002.002a38.065 38.065 0 0 1-3.647-4.255l-.073-.105c-1.093-1.52-1.973-3.04-2.613-4.547-.64-1.52-.96-2.973-.96-4.36 0-.907.16-1.773.48-2.573.32-.813.827-1.56 1.533-2.227.853-.84 1.787-1.253 2.773-1.253.373 0 .747.08 1.08.24.347.16.653.4.893.747l3.093 4.36c.24.333.413.64.533.933.12.28.187.56.187.813 0 .32-.093.64-.28.947a4.52 4.52 0 0 1-.747.947l-1.013 1.053a.712.712 0 0 0-.213.533c0 .107.013.2.04.307.04.107.08.187.107.267.24.44.653 1.013 1.24 1.707.6.693 1.24 1.4 1.933 2.107.72.707 1.413 1.36 2.12 1.96.693.587 1.267.987 1.72 1.227.067.027.147.067.24.107a.92.92 0 0 0 .333.053c.227 0 .4-.08.547-.227l1.013-1c.333-.333.653-.587.96-.747.307-.187.613-.28.947-.28.253 0 .52.053.813.173s.6.293.933.52l4.413 3.133c.347.24.587.52.733.853.133.333.213.667.213 1.04z" />
        </symbol>
        <symbol id="facebook" viewBox="0 0 32 32">
            <path
                d="M18.667 12.4v3.867h3.467c0.267 0 0.4 0.267 0.4 0.533l-0.533 2.533c0 0.133-0.267 0.267-0.4 0.267h-2.933v9.733h-4v-9.6h-2.267c-0.267 0-0.4-0.133-0.4-0.4v-2.533c0-0.267 0.133-0.4 0.4-0.4h2.267v-4.4c0-2.267 1.733-4 4-4h3.6c0.267 0 0.4 0.133 0.4 0.4v3.2c0 0.267-0.133 0.4-0.4 0.4h-3.2c-0.267 0-0.4 0.133-0.4 0.4z">
            </path>
            <path fill="none" stroke-linejoin="round" stroke-linecap="round" stroke-miterlimit="4" stroke-width="2"
                d="M20 29.333h-8c-6.667 0-9.333-2.667-9.333-9.333v-8c0-6.667 2.667-9.333 9.333-9.333h8c6.667 0 9.333 2.667 9.333 9.333v8c0 6.667-2.667 9.333-9.333 9.333z">
            </path>
        </symbol>
        <symbol id="close" viewBox="0 0 32 32">
            <path fill="none" stroke-linejoin="round" stroke-linecap="round" stroke-miterlimit="4" stroke-width="2.4"
                d="M9.334 9.333l13.333 13.333M9.334 22.667l13.333-13.333"></path>
        </symbol>
        <symbol id="innovation" viewBox="0 0 32 32">
            <path stroke-linecap="round" stroke-linejoin="round" stroke-width="2"
                d="M12.8 26.666h6.4c5.334 0 7.466-2.134 7.466-7.468V12.8c0-5.332-2.132-7.466-7.466-7.466h-6.4c-5.334 0-7.468 2.134-7.468 7.466v6.4c0 5.334 2.134 7.468 7.468 7.468z" />
            <path stroke-linecap="round" stroke-linejoin="round" stroke-width="2"
                d="M14 22.666h4c3.332 0 4.666-1.334 4.666-4.668V14c0-3.332-1.334-4.666-4.666-4.666h-4c-3.334 0-4.666 1.334-4.666 4.666v4c0 3.334 1.332 4.668 4.666 4.668zM10.68 5.334V2.668M16 5.334V2.668m5.332 2.666V2.668m5.336 8h2.666M26.668 16h2.666m-2.666 5.332h2.666m-8.002 5.336v2.666m-5.318-2.666v2.666m-5.334-2.666v2.666M2.666 10.668h2.668M2.666 16h2.668m-2.668 5.332h2.668" />
            <path stroke-linecap="round" stroke-linejoin="round" stroke-width="2"
                d="m16 12.934-1.254 2.186c-.28.48-.052.88.508.88h1.492c.56 0 .788.4.508.88L16 19.066" />
        </symbol>
        <symbol id="map" viewBox="0 0 32 32">
            <path stroke-linecap="round" stroke-linejoin="round" stroke-width="2"
                d="M3.053 10.373v12.973c0 2.533 1.8 3.573 3.987 2.32l3.133-1.787c.68-.387 1.813-.427 2.52-.067l7 3.507c.707.347 1.84.32 2.52-.067l5.773-3.307c.733-.427 1.347-1.467 1.347-2.32V8.652c0-2.533-1.8-3.573-3.987-2.32l-3.133 1.787c-.68.387-1.813.427-2.52.067l-7-3.493c-.707-.347-1.84-.32-2.52.067L4.4 8.067c-.747.427-1.347 1.467-1.347 2.307zm8.36-5.04v17.333m9.56-13.839v17.84" />
        </symbol>
        <symbol id="minus" viewBox="0 0 32 32">
            <path stroke-linecap="round" stroke-linejoin="round" stroke-width="3" d="M8 16h16" />
        </symbol>
        <symbol id="openness" viewBox="0 0 32 32">
            <path stroke-linecap="round" stroke-linejoin="round" stroke-width="2"
                d="M22.668 4H28v5.334M20 12l8-8M9.334 28H4v-5.332M12 20l-8 8M18.694 2.934c-.81-.169-1.74-.266-2.693-.266H16c-7.365.003-13.334 5.975-13.334 13.34 0 .942.098 1.86.283 2.747l-.015-.087m10.372 10.398c.81.169 1.741.266 2.694.266 7.365-.003 13.334-5.975 13.334-13.34 0-.942-.098-1.86-.283-2.747l.015.087" />
        </symbol>
        <symbol id="quality" viewBox="0 0 32 32">
            <path stroke-linecap="round" stroke-linejoin="round" stroke-miterlimit="10" stroke-width="2"
                d="M11.56 18.668H5.334a2.674 2.674 0 0 0-2.666 2.666v8h8.892V18.668z" />
            <path stroke-linecap="round" stroke-linejoin="round" stroke-miterlimit="10" stroke-width="2"
                d="M17.774 13.332h-3.56a2.675 2.675 0 0 0-2.668 2.666v13.334h8.894V15.998a2.665 2.665 0 0 0-2.666-2.666zm8.894 9.336H20.44v6.666h8.894v-4c0-1.466-1.2-2.666-2.666-2.666z" />
            <path stroke-linecap="round" stroke-linejoin="round" stroke-width="2"
                d="m16.694 2.76.706 1.414c.094.2.346.386.56.412l1.28.214c.814.134 1.014.734.426 1.306l-1 1a.849.849 0 0 0-.211.725l-.001-.005.28 1.228c.226.972-.294 1.346-1.148.84l-1.2-.708a.813.813 0 0 0-.79.002l.004-.002-1.2.708c-.854.506-1.374.132-1.146-.84l.28-1.228a.84.84 0 0 0-.214-.721l-.986-.986c-.588-.586-.4-1.174.426-1.306l1.28-.214a.89.89 0 0 0 .558-.41l.002-.004.706-1.412c.388-.774 1-.774 1.388-.014z" />
        </symbol>
        <symbol id="responssbility" viewBox="0 0 32 32">
            <path stroke-linecap="round" stroke-linejoin="round" stroke-width="2"
                d="M29.334 16C29.328 8.639 23.361 2.673 16 2.67 8.637 2.673 2.669 8.641 2.666 16.004 2.671 23.366 8.638 29.332 16 29.334" />
            <path stroke-linecap="round" stroke-linejoin="round" stroke-width="2"
                d="M10.668 4H12c-1.236 3.581-1.95 7.707-1.95 12s.714 8.419 2.029 12.267L12 28h-1.332M20 4a38.053 38.053 0 0 1 1.946 12" />
            <path stroke-linecap="round" stroke-linejoin="round" stroke-width="2"
                d="M4 21.334V20a38.053 38.053 0 0 0 12 1.946M4 12a37.898 37.898 0 0 1 24 0" />
            <path stroke-linecap="round" stroke-linejoin="round" stroke-miterlimit="10" stroke-width="2"
                d="m25.612 20.986-4.72 4.72a1.637 1.637 0 0 0-.398.777l-.002.011-.252 1.8c-.094.652.36 1.106 1.014 1.012l1.8-.252c.307-.06.574-.202.787-.401l-.001.001 4.72-4.72c.814-.814 1.2-1.76 0-2.96-1.186-1.188-2.134-.8-2.946.012z" />
            <path stroke-linecap="round" stroke-linejoin="round" stroke-miterlimit="10" stroke-width="2"
                d="M24.932 21.668c.4 1.44 1.52 2.56 2.96 2.96" />
        </symbol>
        <symbol id="sms" viewBox="0 0 32 32">
            <path stroke-linecap="round" stroke-linejoin="round" stroke-miterlimit="10" stroke-width="2"
                d="M22.667 27.333H9.334c-4 0-6.667-2-6.667-6.667v-9.333c0-4.667 2.667-6.667 6.667-6.667h13.333c4 0 6.667 2 6.667 6.667v9.333c0 4.667-2.667 6.667-6.667 6.667z" />
            <path stroke-linecap="round" stroke-linejoin="round" stroke-miterlimit="10" stroke-width="2"
                d="m22.667 12-4.173 3.333c-1.373 1.093-3.627 1.093-5 0L9.334 12" />
        </symbol>
        <symbol id="Logo" viewBox="0 0 215 32">
            <path fill="#97d28b" style="fill: var(--color1, #97d28b)"
                d="M170.352 17.712c-0.874 0-1.538-0.275-1.992-0.824s-0.68-1.264-0.68-2.144c0-0.405 0.050-0.781 0.152-1.128 0.106-0.352 0.262-0.667 0.464-0.944 0.208-0.283 0.486-0.504 0.832-0.664s0.744-0.24 1.192-0.24c0.614 0 1.114 0.144 1.504 0.432 0.39 0.283 0.656 0.693 0.8 1.232l-0.728 0.152c-0.24-0.763-0.762-1.144-1.568-1.144-0.602 0-1.072 0.205-1.408 0.616s-0.504 0.981-0.504 1.712c0 0.736 0.17 1.304 0.512 1.704 0.342 0.395 0.822 0.592 1.44 0.592 0.518 0 0.92-0.128 1.208-0.384 0.294-0.256 0.44-0.565 0.44-0.928v-0.6h-1.592v-0.608h2.288v1.088c0 0.592-0.206 1.088-0.616 1.488-0.41 0.395-0.992 0.592-1.744 0.592zM173.751 17.6v-5.712h2.096c0.603 0 1.075 0.147 1.416 0.44 0.342 0.288 0.512 0.691 0.512 1.208 0 0.416-0.114 0.763-0.344 1.040-0.229 0.272-0.554 0.451-0.976 0.536l1.392 2.488h-0.848l-1.264-2.384h-1.248v2.384h-0.736zM174.487 14.552h1.336c0.379 0 0.672-0.085 0.88-0.256 0.214-0.171 0.32-0.408 0.32-0.712 0-0.699-0.405-1.048-1.216-1.048h-1.32v2.016zM178.814 17.6v-5.712h3.856v0.648h-3.12v1.848h2.584v0.648h-2.584v1.92h3.128v0.648h-3.864zM183.65 17.6v-5.712h3.856v0.648h-3.12v1.848h2.584v0.648h-2.584v1.92h3.128v0.648h-3.864zM188.486 17.6v-5.712h0.888l2.624 3.912 0.432 0.688h0.080l-0.008-1.096v-3.504h0.712v5.712h-0.848l-2.536-3.752-0.552-0.848h-0.072l0.008 1.088v3.512h-0.728z">
            </path>
            <path fill="#173d33" style="fill: var(--color2, #173d33)"
                d="M194.597 17.6v-5.712h3.856v0.648h-3.12v1.848h2.584v0.648h-2.584v1.92h3.128v0.648h-3.864zM199.433 17.6v-5.712h2.096c0.602 0 1.074 0.147 1.416 0.44 0.342 0.288 0.512 0.691 0.512 1.208 0 0.416-0.114 0.763-0.344 1.040-0.23 0.272-0.554 0.451-0.976 0.536l1.392 2.488h-0.848l-1.264-2.384h-1.248v2.384h-0.736zM200.169 14.552h1.336c0.378 0 0.672-0.085 0.88-0.256 0.214-0.171 0.32-0.408 0.32-0.712 0-0.699-0.406-1.048-1.216-1.048h-1.32v2.016zM206.799 17.712c-0.874 0-1.538-0.275-1.992-0.824s-0.68-1.264-0.68-2.144c0-0.405 0.051-0.781 0.152-1.128 0.107-0.352 0.262-0.667 0.464-0.944 0.208-0.283 0.486-0.504 0.832-0.664s0.744-0.24 1.192-0.24c0.614 0 1.115 0.144 1.504 0.432 0.39 0.283 0.656 0.693 0.8 1.232l-0.728 0.152c-0.24-0.763-0.762-1.144-1.568-1.144-0.602 0-1.072 0.205-1.408 0.616s-0.504 0.981-0.504 1.712c0 0.736 0.171 1.304 0.512 1.704 0.342 0.395 0.822 0.592 1.44 0.592 0.518 0 0.92-0.128 1.208-0.384 0.294-0.256 0.44-0.565 0.44-0.928v-0.6h-1.592v-0.608h2.288v1.088c0 0.592-0.205 1.088-0.616 1.488-0.41 0.395-0.992 0.592-1.744 0.592zM211.506 17.6v-2.024l-2.056-3.688h0.856l1.56 2.968 1.568-2.968h0.848l-2.040 3.688v2.024h-0.736zM168.048 24.8v-5.712h3.744v0.648h-3.008v1.984h2.496v0.656h-2.496v2.424h-0.736zM174.845 24.912c-0.848 0-1.512-0.285-1.992-0.856-0.474-0.571-0.712-1.277-0.712-2.12s0.243-1.547 0.728-2.112c0.491-0.571 1.15-0.856 1.976-0.856s1.486 0.285 1.976 0.856c0.491 0.571 0.736 1.275 0.736 2.112 0 0.843-0.24 1.549-0.72 2.12-0.474 0.571-1.138 0.856-1.992 0.856zM174.845 24.256c0.598 0 1.072-0.211 1.424-0.632 0.358-0.421 0.536-0.984 0.536-1.688 0-0.699-0.178-1.259-0.536-1.68-0.357-0.432-0.832-0.648-1.424-0.648-0.581 0-1.053 0.216-1.416 0.648-0.357 0.421-0.536 0.981-0.536 1.68 0 0.704 0.176 1.267 0.528 1.688 0.358 0.421 0.832 0.632 1.424 0.632zM178.549 24.8v-5.712h2.096c0.602 0 1.074 0.147 1.416 0.44 0.341 0.288 0.512 0.691 0.512 1.208 0 0.416-0.115 0.763-0.344 1.040-0.23 0.272-0.555 0.451-0.976 0.536l1.392 2.488h-0.848l-1.264-2.384h-1.248v2.384h-0.736zM179.285 21.752h1.336c0.378 0 0.672-0.085 0.88-0.256 0.213-0.171 0.32-0.408 0.32-0.712 0-0.699-0.406-1.048-1.216-1.048h-1.32v2.016zM185.448 24.8v-5.712h0.736v5.056h3v0.656h-3.736zM189.94 24.8v-5.712h0.736v5.712h-0.736zM192.058 24.8v-5.712h3.744v0.648h-3.008v1.984h2.496v0.656h-2.496v2.424h-0.736zM196.613 24.8v-5.712h3.856v0.648h-3.12v1.848h2.584v0.648h-2.584v1.92h3.128v0.648h-3.864z">
            </path>
            <path
                d="M35.788 25.143c-4.118 0-7.022-2.904-7.022-6.864s2.904-6.864 7.022-6.864c4.118 0 6.97 2.904 6.97 6.864v1.030h-10.982c0.396 2.086 1.98 3.221 4.013 3.221 1.531 0 2.64-0.449 3.353-1.426h3.089c-1.003 2.455-3.379 4.039-6.442 4.039zM31.854 16.906h7.894c-0.502-1.901-2.059-2.878-3.96-2.878-1.954 0-3.432 1.003-3.934 2.878zM50.252 25.143c-4.118 0-7.022-2.904-7.022-6.864s2.904-6.864 7.022-6.864c3.511 0 6.098 2.112 6.758 5.148h-2.878c-0.607-1.505-2.006-2.508-3.881-2.508-2.482 0-4.145 1.769-4.145 4.224s1.663 4.224 4.145 4.224c1.874 0 3.274-1.003 3.881-2.508h2.878c-0.66 3.036-3.247 5.148-6.758 5.148zM64.51 25.143c-4.118 0-7.022-2.904-7.022-6.864s2.904-6.864 7.022-6.864c4.118 0 7.022 2.904 7.022 6.864s-2.904 6.864-7.022 6.864zM64.51 22.503c2.482 0 4.118-1.769 4.118-4.224s-1.637-4.224-4.118-4.224c-2.482 0-4.145 1.769-4.145 4.224s1.663 4.224 4.145 4.224zM77.495 25.143c-3.3 0-5.386-1.769-5.465-4.171h2.878c0.053 0.977 0.924 1.637 2.587 1.637 1.742 0 2.561-0.739 2.561-1.637 0-1.109-1.241-1.241-2.772-1.452-2.112-0.264-4.99-0.66-4.99-3.749 0-2.614 2.033-4.356 5.174-4.356s5.095 1.795 5.148 4.066h-2.825c-0.079-0.898-0.898-1.531-2.297-1.531-1.505 0-2.323 0.713-2.323 1.61 0 1.109 1.294 1.241 2.772 1.452 2.006 0.264 4.99 0.634 4.99 3.749 0 2.64-2.138 4.382-5.439 4.382zM90.474 25.143c-4.118 0-7.022-2.904-7.022-6.864s2.904-6.864 7.022-6.864c4.118 0 7.022 2.904 7.022 6.864s-2.904 6.864-7.022 6.864zM90.474 22.503c2.482 0 4.118-1.769 4.118-4.224s-1.637-4.224-4.118-4.224c-2.482 0-4.145 1.769-4.145 4.224s1.663 4.224 4.145 4.224zM98.945 24.8v-18.744h2.851v18.744h-2.851zM110.25 25.143c-3.854 0-6.442-2.218-6.442-6.6v-6.785h2.851v6.785c0 2.64 1.426 3.96 3.59 3.96s3.59-1.32 3.59-3.96v-6.785h2.851v6.785c0 4.356-2.587 6.6-6.442 6.6zM123.5 25.143c-3.142 0-5.28-1.742-5.28-5.333v-12.672h2.851v4.62h6.943v2.587h-6.943v5.465c0 1.901 0.977 2.693 2.429 2.693s2.455-0.766 2.455-2.693v-0.317h2.825v0.317c0 3.59-2.138 5.333-5.28 5.333zM131.672 9.91c-1.109 0-1.927-0.845-1.927-1.954s0.818-1.954 1.927-1.954c1.109 0 1.927 0.845 1.927 1.954s-0.818 1.954-1.927 1.954zM130.22 24.8v-13.042h2.851v13.042h-2.851zM141.552 25.143c-4.118 0-7.022-2.904-7.022-6.864s2.904-6.864 7.022-6.864c4.118 0 7.022 2.904 7.022 6.864s-2.904 6.864-7.022 6.864zM141.552 22.503c2.482 0 4.118-1.769 4.118-4.224s-1.637-4.224-4.118-4.224c-2.482 0-4.145 1.769-4.145 4.224s1.663 4.224 4.145 4.224zM149.574 24.8v-6.785c0-4.356 2.587-6.6 6.442-6.6s6.442 2.218 6.442 6.6v6.785h-2.851v-6.785c0-2.64-1.426-3.96-3.59-3.96s-3.59 1.32-3.59 3.96v6.785h-2.851z">
            </path>
            <path fill="#173d33" style="fill: var(--color2, #173d33)"
                d="M17.064 21.447c-0.052-0.123-4.312-8.448-4.382-8.563-0.147-0.348-0.365-0.661-0.641-0.922s-0.603-0.462-0.961-0.593-0.74-0.186-1.121-0.165c-0.381 0.022-0.754 0.121-1.095 0.291s-0.642 0.408-0.886 0.698c-0.244 0.29-0.424 0.627-0.529 0.988s-0.135 0.741-0.085 1.115c0.050 0.373 0.177 0.733 0.374 1.055 0.052 0.123 4.13 8.092 4.2 8.206 0.052 0.123 0.113 0.242 0.183 0.357 0.147 0.348 0.365 0.661 0.641 0.922s0.603 0.462 0.961 0.593 0.74 0.186 1.121 0.165c0.381-0.022 0.754-0.121 1.095-0.291s0.642-0.408 0.886-0.698 0.424-0.627 0.53-0.988c0.106-0.362 0.135-0.741 0.085-1.115s-0.177-0.733-0.374-1.055z">
            </path>
            <path fill="#97d28b" style="fill: var(--color1, #97d28b)"
                d="M12.143 15.814c0.261-0.274 0.462-0.599 0.591-0.954s0.181-0.731 0.155-1.107c-0.026-0.376-0.13-0.742-0.306-1.076s-0.42-0.629-0.716-0.866c-0.297-0.237-0.64-0.411-1.007-0.512s-0.753-0.125-1.131-0.072c-0.378 0.053-0.741 0.182-1.066 0.379s-0.606 0.458-0.824 0.767c-0.092 0.096-7.010 8.504-7.086 8.612-0.261 0.274-0.462 0.599-0.591 0.954s-0.181 0.731-0.155 1.107 0.13 0.742 0.306 1.076c0.176 0.334 0.42 0.629 0.716 0.866s0.639 0.411 1.007 0.512c0.368 0.1 0.753 0.125 1.131 0.072s0.741-0.182 1.066-0.379c0.325-0.197 0.606-0.458 0.824-0.767 0.092-0.096 7.010-8.504 7.086-8.612z">
            </path>
            <path fill="#97d28b" style="fill: var(--color1, #97d28b)"
                d="M24.048 15.813c0.261-0.275 0.462-0.599 0.591-0.954s0.181-0.731 0.155-1.107c-0.026-0.376-0.13-0.742-0.306-1.076s-0.42-0.629-0.716-0.866c-0.297-0.237-0.64-0.411-1.007-0.512s-0.753-0.125-1.131-0.072c-0.378 0.053-0.741 0.182-1.066 0.379s-0.606 0.458-0.824 0.767c-0.092 0.096-7.010 8.504-7.086 8.612-0.261 0.275-0.462 0.599-0.59 0.954s-0.181 0.731-0.155 1.107c0.026 0.376 0.13 0.742 0.306 1.076s0.42 0.629 0.716 0.866c0.297 0.237 0.64 0.411 1.007 0.512s0.753 0.125 1.131 0.072c0.378-0.053 0.741-0.182 1.066-0.379s0.606-0.458 0.824-0.767c0.092-0.096 7.010-8.504 7.086-8.612z">
            </path>
        </symbol>
    </defs>
</svg>